<svg xmlns="http://www.w3.org/2000/svg" viewBox="0 0 800 600">
  <rect width="800" height="600" fill="#F7F3E9"/>
  <path d="M0 600 Q200 520 400 560 T800 540 V600 Z" fill="#8CBE3F" opacity="0.18"/>
  <circle cx="680" cy="90" r="120" fill="#8CBE3F" opacity="0.12"/>
  <g><rect x="370" y="150" width="60" height="55" rx="10" fill="#285B52"/><path d="M355 205 h90 c20 25 30 45 30 80 v130 a25 25 0 0 1 -25 25 h-100 a25 25 0 0 1 -25 -25 v-130 c0 -35 10 -55 30 -80 z" fill="#d97a2b"/><rect x="345" y="280" width="110" height="90" rx="10" fill="#285B52"/><text x="400" y="318" font-family="Segoe UI, sans-serif" font-size="17" font-weight="bold" fill="#F7F3E9" text-anchor="middle">Brindhavan</text><text x="400" y="342" font-family="Segoe UI, sans-serif" font-size="15" fill="#8CBE3F" text-anchor="middle">naturals</text></g>
  <text x="400" y="480" font-family="Segoe UI, sans-serif" font-size="30" font-weight="bold" fill="#285B52" text-anchor="middle">Sesame Oil</text>
  <text x="400" y="520" font-family="Segoe UI, sans-serif" font-size="18" fill="#a3a091" text-anchor="middle">Product photo coming soon</text>
</svg>
